<svg height="auto" viewBox="0 0 2000 1000" xmlns="http://www.w3.org/2000/svg"><path d="M0 711.355c21-30.252 63-166.913 105-151.259 42 15.655 63 222.308 105 229.532 42 7.224 63-159.43 105-193.412s63 88.187 105 23.501c42-64.685 63-308.67 105-346.929 42-38.259 63 136.924 105 155.636 42 18.712 63-105.165 105-62.075 42 43.089 63 237.977 105 277.521 42 39.545 63-.452 105-79.8 42-79.347 63-352.53 105-316.939 42 35.591 63 453.064 105 494.895 42 41.831 63-286.613 105-285.74 42 .873 63 281.879 105 290.106 42 8.227 63-126.85 105-248.97s63-348.41 105-361.629c42-13.22 63 189.226 105 295.53 42 106.303 63 237.784 105 235.987 42-1.798 63-143.53 105-244.976 42-101.447 84-209.806 105-262.257l5 839.923H0Z" fill="#45f75f1a"/><path d="M0 711.355c21-30.252 63-166.913 105-151.259 42 15.655 63 222.308 105 229.532 42 7.224 63-159.43 105-193.412s63 88.187 105 23.501c42-64.685 63-308.67 105-346.929 42-38.259 63 136.924 105 155.636 42 18.712 63-105.165 105-62.075 42 43.089 63 237.977 105 277.521 42 39.545 63-.452 105-79.8 42-79.347 63-352.53 105-316.939 42 35.591 63 453.064 105 494.895 42 41.831 63-286.613 105-285.74 42 .873 63 281.879 105 290.106 42 8.227 63-126.85 105-248.97s63-348.41 105-361.629c42-13.22 63 189.226 105 295.53 42 106.303 63 237.784 105 235.987 42-1.798 63-143.53 105-244.976 42-101.447 84-209.806 105-262.257" fill="none" stroke="#45f75f" stroke-width="4"/><g fill="#45f75f"><circle cy="711.355" r="8"/><circle cx="105" cy="560.096" r="8"/><circle cx="210" cy="789.628" r="8"/><circle cx="315" cy="596.216" r="8"/><circle cx="420" cy="619.717" r="8"/><circle cx="525" cy="272.788" r="8"/><circle cx="630" cy="428.424" r="8"/><circle cx="735" cy="366.349" r="8"/><circle cx="840" cy="643.87" r="8"/><circle cx="945" cy="564.071" r="8"/><circle cx="1050" cy="247.131" r="8"/><circle cx="1155" cy="742.026" r="8"/><circle cx="1260" cy="456.286" r="8"/><circle cx="1365" cy="746.392" r="8"/><circle cx="1470" cy="497.422" r="8"/><circle cx="1575" cy="135.793" r="8"/><circle cx="1680" cy="431.322" r="8"/><circle cx="1785" cy="667.31" r="8"/><circle cx="1890" cy="422.334" r="8"/><circle cx="1995" cy="160.077" r="8"/></g></svg>