<svg height="auto" viewBox="0 0 2000 1000" xmlns="http://www.w3.org/2000/svg"><path d="M0 287.953c21 17.116 63 99.877 105 85.583 42-14.294 63-112.6 105-157.053 42-44.452 63-87.704 105-65.209 42 22.496 63 173.124 105 177.688 42 4.564 63-195.01 105-154.867s63 359.04 105 355.58c42-3.46 63-331.57 105-372.882 42-41.311 63 108.142 105 166.324 42 58.183 63 112.645 105 124.588 42 11.943 63-101.963 105-64.87 42 37.091 63 222.486 105 250.33 42 27.845 63-81.812 105-111.108 42-29.297 63-45.544 105-35.375 42 10.17 63 157.487 105 86.22s63-423.21 105-442.556c42-19.346 63 344.464 105 345.828 42 1.364 63-304.118 105-339.009 42-34.89 63 61.586 105 164.557 42 102.972 84 280.24 105 350.301l5 347.977H0Z" fill="#45f6f71a"/><path d="M0 287.953c21 17.116 63 99.877 105 85.583 42-14.294 63-112.6 105-157.053 42-44.452 63-87.704 105-65.209 42 22.496 63 173.124 105 177.688 42 4.564 63-195.01 105-154.867s63 359.04 105 355.58c42-3.46 63-331.57 105-372.882 42-41.311 63 108.142 105 166.324 42 58.183 63 112.645 105 124.588 42 11.943 63-101.963 105-64.87 42 37.091 63 222.486 105 250.33 42 27.845 63-81.812 105-111.108 42-29.297 63-45.544 105-35.375 42 10.17 63 157.487 105 86.22s63-423.21 105-442.556c42-19.346 63 344.464 105 345.828 42 1.364 63-304.118 105-339.009 42-34.89 63 61.586 105 164.557 42 102.972 84 280.24 105 350.301" fill="none" stroke="#45f6f7" stroke-width="4"/></svg>