<svg height="auto" viewBox="0 0 2000 1000" xmlns="http://www.w3.org/2000/svg"><path d="M0 1000h80V550.582q0-4-4-4H4q-4 0-4 4ZM100 1000h80V273.729q0-4-4-4h-72q-4 0-4 4ZM200 1000h80V538.565q0-4-4-4h-72q-4 0-4 4ZM300 1000h80V752.892q0-4-4-4h-72q-4 0-4 4ZM400 1000h80V680.33q0-4-4-4h-72q-4 0-4 4ZM500 1000h80V406.956q0-4-4-4h-72q-4 0-4 4ZM600 1000h80V405.672q0-4-4-4h-72q-4 0-4 4ZM700 1000h80V370.654q0-4-4-4h-72q-4 0-4 4ZM800 1000h80V656.022q0-4-4-4h-72q-4 0-4 4ZM900 1000h80V726.979q0-4-4-4h-72q-4 0-4 4ZM1000 1000h80V492.817q0-4-4-4h-72q-4 0-4 4ZM1100 1000h80V120.456q0-4-4-4h-72q-4 0-4 4ZM1200 1000h80V511.508q0-4-4-4h-72q-4 0-4 4ZM1300 1000h80V606.726q0-4-4-4h-72q-4 0-4 4ZM1400 1000h80V407.977q0-4-4-4h-72q-4 0-4 4ZM1500 1000h80V501.318q0-4-4-4h-72q-4 0-4 4ZM1600 1000h80V675.483q0-4-4-4h-72q-4 0-4 4ZM1700 1000h80V781.6q0-4-4-4h-72q-4 0-4 4ZM1800 1000h80V311.593q0-4-4-4h-72q-4 0-4 4ZM1900 1000h80V195.786q0-4-4-4h-72q-4 0-4 4Z" fill="#f74545"/></svg>