<svg height="auto" viewBox="0 0 2000 1000" xmlns="http://www.w3.org/2000/svg"><path d="M0 19.892c21 6.265 63 16.657 105 31.324 42 14.667 63 25.882 105 42.01 42 16.13 63 34.413 105 38.636 42 4.223 63-37.818 105-17.52 42 20.297 63 101.712 105 119.007s63-59.676 105-32.532c42 27.144 63 146.818 105 168.25 42 21.432 63-82.448 105-61.09 42 21.358 63 149.037 105 167.879 42 18.841 63-92.07 105-73.672 42 18.4 63 127.582 105 165.666s63 41.134 105 24.754 63-98.097 105-106.655c42-8.557 63 63.689 105 63.868 42 .18 63-76.965 105-62.97 42 13.993 63 130.9 105 132.94 42 2.04 63-162.356 105-122.741 42 39.615 63 239.092 105 320.818 42 81.726 84 70.25 105 87.812l5 94.324H0Z" fill="#ef45f71a"/><path d="M0 19.892c21 6.265 63 16.657 105 31.324 42 14.667 63 25.882 105 42.01 42 16.13 63 34.413 105 38.636 42 4.223 63-37.818 105-17.52 42 20.297 63 101.712 105 119.007s63-59.676 105-32.532c42 27.144 63 146.818 105 168.25 42 21.432 63-82.448 105-61.09 42 21.358 63 149.037 105 167.879 42 18.841 63-92.07 105-73.672 42 18.4 63 127.582 105 165.666s63 41.134 105 24.754 63-98.097 105-106.655c42-8.557 63 63.689 105 63.868 42 .18 63-76.965 105-62.97 42 13.993 63 130.9 105 132.94 42 2.04 63-162.356 105-122.741 42 39.615 63 239.092 105 320.818 42 81.726 84 70.25 105 87.812" fill="none" stroke="#ef45f7" stroke-width="4"/></svg>