<svg height="auto" viewBox="0 0 2000 1000" xmlns="http://www.w3.org/2000/svg"><path d="M0 999.026c21-8.918 63-32.878 105-44.589 42-11.71 63 7.668 105-13.963 42-21.63 63-76.854 105-94.19 42-17.335 63 5.464 105 7.513 42 2.048 63 35.686 105 2.73s63-150.641 105-167.51c42-16.87 63 68.273 105 83.165 42 14.893 63-4.806 105-8.704 42-3.899 63-1.895 105-10.786 42-8.892 63 9.53 105-33.67s63-174.477 105-182.328c42-7.851 63 187.952 105 143.073 42-44.879 63-305.474 105-367.468 42-61.994 63 60.85 105 57.498 42-3.351 63-30.831 105-74.256s63-181.97 105-142.869c42 39.1 63 295.865 105 338.37 42 42.506 63-85.56 105-125.843s84-60.455 105-75.569l5 710.37H0Z" fill="#444cf71a"/><path d="M0 999.026c21-8.918 63-32.878 105-44.589 42-11.71 63 7.668 105-13.963 42-21.63 63-76.854 105-94.19 42-17.335 63 5.464 105 7.513 42 2.048 63 35.686 105 2.73s63-150.641 105-167.51c42-16.87 63 68.273 105 83.165 42 14.893 63-4.806 105-8.704 42-3.899 63-1.895 105-10.786 42-8.892 63 9.53 105-33.67s63-174.477 105-182.328c42-7.851 63 187.952 105 143.073 42-44.879 63-305.474 105-367.468 42-61.994 63 60.85 105 57.498 42-3.351 63-30.831 105-74.256s63-181.97 105-142.869c42 39.1 63 295.865 105 338.37 42 42.506 63-85.56 105-125.843s84-60.455 105-75.569" fill="none" stroke="#444cf7" stroke-width="4"/><g fill="#444cf7"><circle cy="999.026" r="8"/><circle cx="105" cy="954.437" r="8"/><circle cx="210" cy="940.474" r="8"/><circle cx="315" cy="846.284" r="8"/><circle cx="420" cy="853.797" r="8"/><circle cx="525" cy="856.527" r="8"/><circle cx="630" cy="689.017" r="8"/><circle cx="735" cy="772.182" r="8"/><circle cx="840" cy="763.478" r="8"/><circle cx="945" cy="752.692" r="8"/><circle cx="1050" cy="719.022" r="8"/><circle cx="1155" cy="536.694" r="8"/><circle cx="1260" cy="679.767" r="8"/><circle cx="1365" cy="312.299" r="8"/><circle cx="1470" cy="369.797" r="8"/><circle cx="1575" cy="295.541" r="8"/><circle cx="1680" cy="152.672" r="8"/><circle cx="1785" cy="491.043" r="8"/><circle cx="1890" cy="365.199" r="8"/><circle cx="1995" cy="289.63" r="8"/></g></svg>