<svg height="auto" viewBox="0 0 2000 1000" xmlns="http://www.w3.org/2000/svg"><path d="M0 994.625c21-5.337 63-11.665 105-26.688s63-25.951 105-48.427c42-22.475 63-42.657 105-63.95 42-21.293 63-25.577 105-42.513 42-16.936 63-18.657 105-42.168 42-23.51 63-76.098 105-75.385 42 .713 63 69.376 105 78.951 42 9.575 63 6.122 105-31.075 42-37.198 63-118.942 105-154.912 42-35.97 63-9.886 105-24.935 42-15.05 63-27.812 105-50.314 42-22.501 63-32.081 105-62.195 42-30.113 63-106.186 105-88.371 42 17.816 63 177.324 105 177.449s63-127.673 105-176.825c42-49.152 63-41.791 105-68.935 42-27.144 63-61.873 105-66.784 42-4.91 63 1.137 105 42.228 42 41.092 84 130.585 105 163.23l5 566.994H0Z" fill="#454ff71a"/><path d="M0 994.625c21-5.337 63-11.665 105-26.688s63-25.951 105-48.427c42-22.475 63-42.657 105-63.95 42-21.293 63-25.577 105-42.513 42-16.936 63-18.657 105-42.168 42-23.51 63-76.098 105-75.385 42 .713 63 69.376 105 78.951 42 9.575 63 6.122 105-31.075 42-37.198 63-118.942 105-154.912 42-35.97 63-9.886 105-24.935 42-15.05 63-27.812 105-50.314 42-22.501 63-32.081 105-62.195 42-30.113 63-106.186 105-88.371 42 17.816 63 177.324 105 177.449s63-127.673 105-176.825c42-49.152 63-41.791 105-68.935 42-27.144 63-61.873 105-66.784 42-4.91 63 1.137 105 42.228 42 41.092 84 130.585 105 163.23" fill="none" stroke="#454ff7" stroke-width="4"/><g fill="#454ff7"><circle cy="994.625" r="8"/><circle cx="105" cy="967.937" r="8"/><circle cx="210" cy="919.51" r="8"/><circle cx="315" cy="855.56" r="8"/><circle cx="420" cy="813.047" r="8"/><circle cx="525" cy="770.879" r="8"/><circle cx="630" cy="695.494" r="8"/><circle cx="735" cy="774.445" r="8"/><circle cx="840" cy="743.37" r="8"/><circle cx="945" cy="588.458" r="8"/><circle cx="1050" cy="563.523" r="8"/><circle cx="1155" cy="513.209" r="8"/><circle cx="1260" cy="451.014" r="8"/><circle cx="1365" cy="362.643" r="8"/><circle cx="1470" cy="540.092" r="8"/><circle cx="1575" cy="363.267" r="8"/><circle cx="1680" cy="294.332" r="8"/><circle cx="1785" cy="227.548" r="8"/><circle cx="1890" cy="269.776" r="8"/><circle cx="1995" cy="433.007" r="8"/></g></svg>