<svg width="54" height="51" viewBox="0 0 54 51" fill="none" xmlns="http://www.w3.org/2000/svg">
<path d="M33.266 1.87402L45.5366 23.1315C46.2057 24.291 46.2057 25.7194 45.5366 26.8788L33.266 48.1363C32.5968 49.2958 31.36 50.01 30.0215 50.01H37.2123C38.5508 50.01 39.7876 49.2958 40.4568 48.1363L52.7274 26.8788C53.3965 25.7194 53.3965 24.291 52.7274 23.1315L40.4568 1.87402C39.7876 0.714564 38.5506 0.000366211 37.2123 0.000366211H30.0215C31.36 0.000366211 32.5968 0.714564 33.266 1.87402Z" fill="#39435A"/>
<path d="M33.266 1.87402C33.6051 2.46145 34.2286 2.82079 34.9054 2.86543C35.4911 2.90405 36.088 2.96714 36.6924 3.05601C37.5192 3.17766 38.3187 3.34152 39.0828 3.54169C40.0271 3.78908 40.9445 2.71943 40.4565 1.87402C39.7876 0.714564 38.5508 0.000366211 37.2123 0.000366211H30.0215C31.36 0.000366211 32.5968 0.714564 33.266 1.87402Z" fill="#2C374C"/>
<path d="M19.4242 1.87414L31.6948 23.1316C32.3639 24.2911 32.3639 25.7195 31.6948 26.879L19.4242 48.1365C18.755 49.2959 17.5182 50.0101 16.1797 50.0101H23.3705C24.709 50.0101 25.9458 49.2959 26.615 48.1365L38.8856 26.879C39.5547 25.7195 39.5547 24.2911 38.8856 23.1316L26.615 1.87414C25.9457 0.714686 24.7088 0.000488281 23.3703 0.000488281H16.1797C17.5181 0.000488281 18.7549 0.714686 19.4242 1.87414Z" fill="#39435A"/>
<path d="M19.9632 48.136L7.69268 26.8785C7.0235 25.719 7.0235 24.2906 7.69268 23.1312L19.9632 1.87365C20.6324 0.714198 21.8692 0 23.2077 0H16.017C14.6784 0 13.4416 0.714198 12.7724 1.87365L0.501886 23.1312C-0.167295 24.2906 -0.167295 25.719 0.501886 26.8785L12.7724 48.136C13.4416 49.2954 14.6784 50.0096 16.017 50.0096H23.2077C21.8692 50.0096 20.6324 49.2954 19.9632 48.136Z" fill="#435F94"/>
<path d="M27.0531 48.1361L14.7825 26.8786C14.1133 25.7191 14.1133 24.2907 14.7825 23.1313L27.0531 1.87378C27.7222 0.714686 28.9591 0.000488281 30.2976 0.000488281H23.1068C21.7683 0.000488281 20.5315 0.714686 19.8623 1.87414L7.59173 23.1316C6.92255 24.2911 6.92255 25.7195 7.59173 26.879L19.8623 48.1365C20.5315 49.2959 21.7683 50.0101 23.1068 50.0101H30.2976C28.9591 50.0098 27.7222 49.2956 27.0531 48.1361Z" fill="#377DFF"/>
<path d="M34.2796 48.1361L22.0091 26.8786C21.3399 25.7191 21.3399 24.2907 22.0091 23.1313L34.2796 1.87378C34.9488 0.714686 36.1856 0.000488281 37.5242 0.000488281H30.3334C28.9948 0.000488281 27.758 0.714686 27.0888 1.87414L14.8183 23.1316C14.1491 24.2911 14.1491 25.7195 14.8183 26.879L27.0888 48.1365C27.758 49.2959 28.9948 50.0101 30.3334 50.0101H37.5242C36.1856 50.0098 34.9488 49.2956 34.2796 48.1361Z" fill="#37DBFF"/>
</svg>
