<svg width="100" height="73" viewBox="0 0 100 73" fill="none" xmlns="http://www.w3.org/2000/svg">
<ellipse cx="2.53392" cy="4.10246" rx="2.5" ry="2.62469" transform="rotate(-0.745038 2.53392 4.10246)" fill="#EC1AFF"/>
<ellipse cx="3.10228" cy="47.8832" rx="2.5" ry="2.62469" transform="rotate(-0.745038 3.10228 47.8832)" fill="#EC1AFF"/>
<ellipse cx="39.9206" cy="3.61638" rx="2.5" ry="2.62469" transform="rotate(-0.745038 39.9206 3.61638)" fill="#EC1AFF"/>
<ellipse cx="40.4909" cy="47.3969" rx="2.5" ry="2.62469" transform="rotate(-0.745038 40.4909 47.3969)" fill="#EC1AFF"/>
<ellipse cx="77.3074" cy="3.13005" rx="2.5" ry="2.62469" transform="rotate(-0.745038 77.3074 3.13005)" fill="#EC1AFF"/>
<ellipse cx="77.8777" cy="46.9108" rx="2.5" ry="2.62469" transform="rotate(-0.745038 77.8777 46.9108)" fill="#EC1AFF"/>
<ellipse cx="2.81907" cy="25.9926" rx="2.5" ry="2.62469" transform="rotate(-0.745038 2.81907 25.9926)" fill="#EC1AFF"/>
<ellipse cx="3.38743" cy="69.7731" rx="2.5" ry="2.62469" transform="rotate(-0.745038 3.38743 69.7731)" fill="#EC1AFF"/>
<ellipse cx="40.2058" cy="25.5065" rx="2.5" ry="2.62469" transform="rotate(-0.745038 40.2058 25.5065)" fill="#EC1AFF"/>
<ellipse cx="40.7742" cy="69.287" rx="2.5" ry="2.62469" transform="rotate(-0.745038 40.7742 69.287)" fill="#EC1AFF"/>
<ellipse cx="77.5925" cy="25.0204" rx="2.5" ry="2.62469" transform="rotate(-0.745038 77.5925 25.0204)" fill="#EC1AFF"/>
<ellipse cx="78.1609" cy="68.8008" rx="2.5" ry="2.62469" transform="rotate(-0.745038 78.1609 68.8008)" fill="#EC1AFF"/>
<ellipse cx="21.2273" cy="3.8593" rx="2.5" ry="2.62469" transform="rotate(-0.745038 21.2273 3.8593)" fill="#EC1AFF"/>
<ellipse cx="21.7976" cy="47.6401" rx="2.5" ry="2.62469" transform="rotate(-0.745038 21.7976 47.6401)" fill="#EC1AFF"/>
<ellipse cx="58.614" cy="3.37321" rx="2.5" ry="2.62469" transform="rotate(-0.745038 58.614 3.37321)" fill="#EC1AFF"/>
<ellipse cx="59.1843" cy="47.154" rx="2.5" ry="2.62469" transform="rotate(-0.745038 59.1843 47.154)" fill="#EC1AFF"/>
<ellipse cx="96.0007" cy="2.88688" rx="2.5" ry="2.62469" transform="rotate(-0.745038 96.0007 2.88688)" fill="#EC1AFF"/>
<ellipse cx="96.571" cy="46.6676" rx="2.5" ry="2.62469" transform="rotate(-0.745038 96.571 46.6676)" fill="#EC1AFF"/>
<ellipse cx="21.5124" cy="25.7497" rx="2.5" ry="2.62469" transform="rotate(-0.745038 21.5124 25.7497)" fill="#EC1AFF"/>
<ellipse cx="22.0808" cy="69.5301" rx="2.5" ry="2.62469" transform="rotate(-0.745038 22.0808 69.5301)" fill="#EC1AFF"/>
<ellipse cx="58.8992" cy="25.2633" rx="2.5" ry="2.62469" transform="rotate(-0.745038 58.8992 25.2633)" fill="#EC1AFF"/>
<ellipse cx="59.4675" cy="69.0439" rx="2.5" ry="2.62469" transform="rotate(-0.745038 59.4675 69.0439)" fill="#EC1AFF"/>
<ellipse cx="96.2859" cy="24.7773" rx="2.5" ry="2.62469" transform="rotate(-0.745038 96.2859 24.7773)" fill="#EC1AFF"/>
<ellipse cx="96.8542" cy="68.5578" rx="2.5" ry="2.62469" transform="rotate(-0.745038 96.8542 68.5578)" fill="#EC1AFF"/>
</svg>
