<svg width="22" height="22" viewBox="0 0 22 22" fill="none" xmlns="http://www.w3.org/2000/svg">
<g clip-path="url(#clip0_1_1707)">
<path d="M20.8996 3.02272C20.0378 3.63065 19.0835 4.09562 18.0736 4.39972C17.5316 3.77648 16.8112 3.33474 16.0099 3.13426C15.2087 2.93377 14.3652 2.9842 13.5935 3.27873C12.8218 3.57326 12.1592 4.09768 11.6953 4.78107C11.2314 5.46445 10.9885 6.27382 10.9996 7.09972V7.99972C9.41798 8.04073 7.85076 7.68995 6.43752 6.97862C5.02428 6.26729 3.80889 5.21749 2.89961 3.92272C2.89961 3.92272 -0.700391 12.0227 7.39961 15.6227C5.54608 16.8809 3.33805 17.5118 1.09961 17.4227C9.19961 21.9227 19.0996 17.4227 19.0996 7.07272C19.0988 6.82203 19.0747 6.57196 19.0276 6.32572C19.9462 5.41987 20.5944 4.27616 20.8996 3.02272V3.02272Z" stroke="#383638" stroke-width="2" stroke-linecap="round" stroke-linejoin="round"/>
</g>
<defs>
<clipPath id="clip0_1_1707">
<rect width="21.6" height="21.6" fill="white" transform="translate(0.199219 0.322754)"/>
</clipPath>
</defs>
</svg>
